<svg width="19" height="21" viewBox="0 0 19 21" xmlns="http://www.w3.org/2000/svg">
<path d="M5.1014 14.0914C5.1014 13.6971 4.95497 13.3604 4.66213 13.0814C4.36928 12.8024 4.01591 12.6629 3.60202 12.6629C3.18813 12.6629 2.83476 12.8024 2.54192 13.0814C2.24907 13.3604 2.10265 13.6971 2.10265 14.0914C2.10265 14.4858 2.24907 14.8225 2.54192 15.1015C2.83476 15.3805 3.18813 15.52 3.60202 15.52C4.01591 15.52 4.36928 15.3805 4.66213 15.1015C4.95497 14.8225 5.1014 14.4858 5.1014 14.0914ZM17.0964 14.0914C17.0964 13.6971 16.95 13.3604 16.6571 13.0814C16.3643 12.8024 16.0109 12.6629 15.597 12.6629C15.1831 12.6629 14.8298 12.8024 14.5369 13.0814C14.2441 13.3604 14.0976 13.6971 14.0976 14.0914C14.0976 14.4858 14.2441 14.8225 14.5369 15.1015C14.8298 15.3805 15.1831 15.52 15.597 15.52C16.0109 15.52 16.3643 15.3805 16.6571 15.1015C16.95 14.8225 17.0964 14.4858 17.0964 14.0914ZM16.5576 9.67181L15.7142 5.38609C15.6751 5.21496 15.5873 5.07545 15.4506 4.96756C15.3139 4.85968 15.1558 4.80573 14.9762 4.80573H4.22286C4.04324 4.80573 3.88511 4.85968 3.74845 4.96756C3.61178 5.07545 3.52393 5.21496 3.48488 5.38609L2.64148 9.67181C2.60244 9.89502 2.6571 10.0922 2.80548 10.2633C2.95385 10.4345 3.14518 10.52 3.37946 10.52H15.8196C16.0539 10.52 16.2452 10.4345 16.3936 10.2633C16.5419 10.0922 16.5966 9.89502 16.5576 9.67181ZM13.9102 2.84145C13.9102 2.69264 13.8556 2.56615 13.7462 2.46198C13.6369 2.35782 13.5041 2.30573 13.348 2.30573H5.85109C5.6949 2.30573 5.56214 2.35782 5.45281 2.46198C5.34348 2.56615 5.28882 2.69264 5.28882 2.84145C5.28882 2.99026 5.34348 3.11675 5.45281 3.22091C5.56214 3.32508 5.6949 3.37716 5.85109 3.37716H13.348C13.5041 3.37716 13.6369 3.32508 13.7462 3.22091C13.8556 3.11675 13.9102 2.99026 13.9102 2.84145ZM18.5958 10.933V17.6629H17.0964V19.0914C17.0964 19.4858 16.95 19.8225 16.6571 20.1015C16.3643 20.3805 16.0109 20.52 15.597 20.52C15.1831 20.52 14.8298 20.3805 14.5369 20.1015C14.2441 19.8225 14.0976 19.4858 14.0976 19.0914V17.6629H5.1014V19.0914C5.1014 19.4858 4.95497 19.8225 4.66213 20.1015C4.36928 20.3805 4.01591 20.52 3.60202 20.52C3.18813 20.52 2.83476 20.3805 2.54192 20.1015C2.24907 19.8225 2.10265 19.4858 2.10265 19.0914V17.6629H0.603271V10.933C0.603271 10.0996 0.700887 9.27002 0.896118 8.44413L2.10265 3.37716C2.17293 2.79681 2.55363 2.28713 3.24475 1.84814C3.93587 1.40916 4.83393 1.07806 5.93894 0.854841C7.04395 0.631627 8.26414 0.52002 9.59952 0.52002C10.9349 0.52002 12.1551 0.631627 13.2601 0.854841C14.3651 1.07806 15.2632 1.40916 15.9543 1.84814C16.6454 2.28713 17.0261 2.79681 17.0964 3.37716L18.3264 8.44413C18.506 9.20306 18.5958 10.0327 18.5958 10.933Z"/>
</svg>
