<svg xmlns="http://www.w3.org/2000/svg" xmlns:xlink="http://www.w3.org/1999/xlink"><defs>
    <clipPath id="clip0_58_80">
      <rect width="20.8265" height="21.12" transform="translate(0 0.959961)"/>
    </clipPath>
  </defs><symbol id="icon-bike" viewBox="0 0 25 24">
<rect width="23.6664" height="24" transform="translate(0.372803)" fill="transparent"/>
<path d="M18.3075 21C17.4664 21 16.6442 20.7471 15.9449 20.2732C15.2456 19.7994 14.7005 19.1258 14.3786 18.3378C14.0568 17.5498 13.9726 16.6827 14.1366 15.8462C14.3007 15.0096 14.7057 14.2412 15.3005 13.6381C15.8952 13.035 16.6529 12.6243 17.4779 12.4579C18.3028 12.2915 19.1578 12.3769 19.9349 12.7033C20.7119 13.0297 21.3761 13.5824 21.8434 14.2916C22.3106 15.0008 22.5601 15.8346 22.5601 16.6875C22.5588 17.8309 22.1104 18.927 21.3132 19.7355C20.5159 20.544 19.435 20.9988 18.3075 21V21ZM18.3075 13.875C17.759 13.875 17.2228 14.04 16.7667 14.349C16.3106 14.658 15.9551 15.0973 15.7452 15.6112C15.5353 16.1251 15.4804 16.6906 15.5874 17.2362C15.6944 17.7818 15.9585 18.2829 16.3464 18.6762C16.7343 19.0696 17.2284 19.3374 17.7664 19.446C18.3044 19.5545 18.8621 19.4988 19.3688 19.2859C19.8756 19.073 20.3088 18.7126 20.6135 18.25C20.9182 17.7875 21.0809 17.2438 21.0809 16.6875C21.08 15.9418 20.7876 15.227 20.2676 14.6997C19.7477 14.1725 19.0428 13.8759 18.3075 13.875V13.875Z"/>
<path d="M6.10449 21C5.26342 21 4.44123 20.7471 3.7419 20.2732C3.04257 19.7994 2.4975 19.1258 2.17564 18.3378C1.85377 17.5498 1.76956 16.6827 1.93364 15.8462C2.09773 15.0096 2.50275 14.2412 3.09748 13.6381C3.69221 13.035 4.44994 12.6243 5.27486 12.4579C6.09978 12.2915 6.95483 12.3769 7.73188 12.7033C8.50893 13.0297 9.17309 13.5824 9.64037 14.2916C10.1076 15.0008 10.3571 15.8346 10.3571 16.6875C10.3558 17.8309 9.9074 18.927 9.11016 19.7355C8.31291 20.544 7.23197 20.9988 6.10449 21V21ZM6.10449 13.875C5.55596 13.875 5.01975 14.04 4.56367 14.349C4.10758 14.658 3.75211 15.0973 3.5422 15.6112C3.33228 16.1251 3.27736 16.6906 3.38437 17.2362C3.49139 17.7818 3.75553 18.2829 4.1434 18.6762C4.53126 19.0696 5.02544 19.3374 5.56343 19.446C6.10142 19.5545 6.65906 19.4988 7.16583 19.2859C7.67261 19.073 8.10575 18.7126 8.4105 18.25C8.71525 17.7875 8.8779 17.2438 8.8779 16.6875C8.87705 15.9418 8.58458 15.227 8.06465 14.6997C7.54472 14.1725 6.83979 13.8759 6.10449 13.875V13.875Z"/>
<path d="M15.1644 6.00005C15.3592 6.00073 15.5522 5.96225 15.7323 5.88681C15.9123 5.81138 16.0759 5.7005 16.2134 5.56058C16.351 5.42065 16.4598 5.25447 16.5336 5.07163C16.6074 4.88879 16.6448 4.69293 16.6435 4.49536C16.6457 4.29878 16.6092 4.10374 16.5361 3.92164C16.4631 3.73954 16.3549 3.57403 16.2181 3.4348C16.0812 3.29558 15.9183 3.18542 15.739 3.11077C15.5597 3.03612 15.3675 2.99848 15.1736 3.00005C14.9794 2.99943 14.7869 3.03762 14.6072 3.11243C14.4275 3.18725 14.2641 3.29722 14.1263 3.43607C13.9885 3.57492 13.8791 3.73994 13.8042 3.92169C13.7293 4.10344 13.6904 4.29838 13.6898 4.49536C13.6892 4.69234 13.7269 4.88752 13.8007 5.06974C13.8744 5.25197 13.9829 5.41767 14.1198 5.55739C14.2567 5.69712 14.4194 5.80812 14.5987 5.88407C14.7779 5.96002 14.9701 5.99943 15.1644 6.00005V6.00005Z"/>
<path d="M17.3622 9.00003H15.3395C15.3063 9.00004 15.2737 8.99099 15.2452 8.97384C15.2167 8.95668 15.1932 8.93205 15.1773 8.90253L13.7101 6.17581C13.6068 5.97318 13.4578 5.79807 13.2753 5.66467C13.0928 5.53127 12.8818 5.44333 12.6596 5.40795C12.4373 5.37258 12.21 5.39077 11.996 5.46106C11.7819 5.53135 11.5872 5.65175 11.4276 5.81253L8.19843 9.11253C7.92715 9.39333 7.77316 9.76945 7.76855 10.1625C7.76855 10.9782 8.35097 11.2688 8.62369 11.4328C9.94106 12.2025 10.8688 12.7655 11.3777 13.0782C11.4047 13.0949 11.4271 13.1183 11.4427 13.1463C11.4582 13.1743 11.4664 13.2059 11.4664 13.238V16.478C11.4664 16.8816 11.7724 17.228 12.1704 17.2482C12.2703 17.253 12.3702 17.2373 12.464 17.2019C12.5577 17.1666 12.6434 17.1123 12.7159 17.0423C12.7883 16.9724 12.8461 16.8883 12.8855 16.7951C12.925 16.7018 12.9455 16.6015 12.9456 16.5V12.4688C12.9457 12.3497 12.9178 12.2324 12.8642 12.1264C12.8107 12.0204 12.7331 11.9289 12.6377 11.8594L10.9275 10.6121C10.906 10.5965 10.8881 10.5764 10.8749 10.5532C10.8617 10.53 10.8536 10.5043 10.851 10.4776C10.8485 10.451 10.8516 10.4241 10.8602 10.3988C10.8687 10.3734 10.8825 10.3503 10.9007 10.3308L12.842 8.23128C12.862 8.20968 12.8866 8.19316 12.914 8.18307C12.9414 8.17297 12.9708 8.1696 12.9997 8.17321C13.0287 8.17682 13.0563 8.18731 13.0805 8.20384C13.1047 8.22037 13.1247 8.24246 13.1388 8.26831L14.1474 10.1143C14.2115 10.2313 14.3053 10.3288 14.4191 10.3966C14.5329 10.4644 14.6625 10.5001 14.7945 10.5H17.383C17.4832 10.5002 17.5824 10.4796 17.6745 10.4397C17.7667 10.3998 17.8498 10.3413 17.919 10.2678C17.9882 10.1942 18.0419 10.1073 18.0769 10.012C18.1119 9.91685 18.1274 9.81543 18.1226 9.71394C18.1032 9.31035 17.7602 9.00003 17.3622 9.00003Z"/>
</symbol><symbol id="icon-bus" viewBox="0 0 19 21">
<path d="M5.1014 14.0914C5.1014 13.6971 4.95497 13.3604 4.66213 13.0814C4.36928 12.8024 4.01591 12.6629 3.60202 12.6629C3.18813 12.6629 2.83476 12.8024 2.54192 13.0814C2.24907 13.3604 2.10265 13.6971 2.10265 14.0914C2.10265 14.4858 2.24907 14.8225 2.54192 15.1015C2.83476 15.3805 3.18813 15.52 3.60202 15.52C4.01591 15.52 4.36928 15.3805 4.66213 15.1015C4.95497 14.8225 5.1014 14.4858 5.1014 14.0914ZM17.0964 14.0914C17.0964 13.6971 16.95 13.3604 16.6571 13.0814C16.3643 12.8024 16.0109 12.6629 15.597 12.6629C15.1831 12.6629 14.8298 12.8024 14.5369 13.0814C14.2441 13.3604 14.0976 13.6971 14.0976 14.0914C14.0976 14.4858 14.2441 14.8225 14.5369 15.1015C14.8298 15.3805 15.1831 15.52 15.597 15.52C16.0109 15.52 16.3643 15.3805 16.6571 15.1015C16.95 14.8225 17.0964 14.4858 17.0964 14.0914ZM16.5576 9.67181L15.7142 5.38609C15.6751 5.21496 15.5873 5.07545 15.4506 4.96756C15.3139 4.85968 15.1558 4.80573 14.9762 4.80573H4.22286C4.04324 4.80573 3.88511 4.85968 3.74845 4.96756C3.61178 5.07545 3.52393 5.21496 3.48488 5.38609L2.64148 9.67181C2.60244 9.89502 2.6571 10.0922 2.80548 10.2633C2.95385 10.4345 3.14518 10.52 3.37946 10.52H15.8196C16.0539 10.52 16.2452 10.4345 16.3936 10.2633C16.5419 10.0922 16.5966 9.89502 16.5576 9.67181ZM13.9102 2.84145C13.9102 2.69264 13.8556 2.56615 13.7462 2.46198C13.6369 2.35782 13.5041 2.30573 13.348 2.30573H5.85109C5.6949 2.30573 5.56214 2.35782 5.45281 2.46198C5.34348 2.56615 5.28882 2.69264 5.28882 2.84145C5.28882 2.99026 5.34348 3.11675 5.45281 3.22091C5.56214 3.32508 5.6949 3.37716 5.85109 3.37716H13.348C13.5041 3.37716 13.6369 3.32508 13.7462 3.22091C13.8556 3.11675 13.9102 2.99026 13.9102 2.84145ZM18.5958 10.933V17.6629H17.0964V19.0914C17.0964 19.4858 16.95 19.8225 16.6571 20.1015C16.3643 20.3805 16.0109 20.52 15.597 20.52C15.1831 20.52 14.8298 20.3805 14.5369 20.1015C14.2441 19.8225 14.0976 19.4858 14.0976 19.0914V17.6629H5.1014V19.0914C5.1014 19.4858 4.95497 19.8225 4.66213 20.1015C4.36928 20.3805 4.01591 20.52 3.60202 20.52C3.18813 20.52 2.83476 20.3805 2.54192 20.1015C2.24907 19.8225 2.10265 19.4858 2.10265 19.0914V17.6629H0.603271V10.933C0.603271 10.0996 0.700887 9.27002 0.896118 8.44413L2.10265 3.37716C2.17293 2.79681 2.55363 2.28713 3.24475 1.84814C3.93587 1.40916 4.83393 1.07806 5.93894 0.854841C7.04395 0.631627 8.26414 0.52002 9.59952 0.52002C10.9349 0.52002 12.1551 0.631627 13.2601 0.854841C14.3651 1.07806 15.2632 1.40916 15.9543 1.84814C16.6454 2.28713 17.0261 2.79681 17.0964 3.37716L18.3264 8.44413C18.506 9.20306 18.5958 10.0327 18.5958 10.933Z"/>
</symbol><symbol id="icon-email-1" viewBox="0 0 24 25">
<path fill-rule="evenodd" clip-rule="evenodd" d="M19.1393 16.4663L14.8089 12.5L19.1393 8.53365L18.5488 7.90264L12.25 13.6719L5.95117 7.90264L5.36066 8.53365L9.69108 12.5L5.36066 16.4663L5.95117 17.0974L10.3308 13.0859L12.25 14.8438L14.1691 13.0859L18.5488 17.0974L19.1393 16.4663ZM4.57593 6.25C3.76692 6.25 3.11108 6.94884 3.11108 7.80786V17.1921C3.11108 18.0525 3.7616 18.75 4.57593 18.75H19.924C20.733 18.75 21.3889 18.0512 21.3889 17.1921V7.80786C21.3889 6.94748 20.7383 6.25 19.924 6.25H4.57593Z"/>
</symbol><symbol id="icon-email-2" viewBox="0 0 16 14">
<path d="M1.25925 2.60026L7.25925 6.36066C7.46085 6.48666 7.72165 6.54639 7.98405 6.54639C8.24645 6.54639 8.50725 6.48666 8.70885 6.36066L14.7088 2.60026C15.1 2.35479 15.4697 1.39999 14.7521 1.39999H1.21685C0.49925 1.39999 0.86885 2.35479 1.25925 2.60026ZM14.8905 4.65639L8.70885 8.41493C8.43685 8.58106 8.24645 8.60066 7.98405 8.60066C7.72165 8.60066 7.53125 8.58106 7.25925 8.41493C6.98725 8.24879 1.55285 4.92519 1.10885 4.65546C0.79685 4.46506 0.80005 4.68813 0.80005 4.85986V11.6667C0.80005 12.0587 1.25285 12.6 1.60005 12.6H14.4001C14.7473 12.6 15.2001 12.0587 15.2001 11.6667V4.86079C15.2001 4.68906 15.2033 4.46599 14.8905 4.65639Z"/>
</symbol><symbol id="icon-email" viewBox="0 0 19 13">
<path fill-rule="evenodd" clip-rule="evenodd" d="M16.1393 10.4663L11.8089 6.5L16.1393 2.53365L15.5488 1.90264L9.24997 7.67188L2.95117 1.90264L2.36066 2.53365L6.69108 6.5L2.36066 10.4663L2.95117 11.0974L7.33081 7.08594L9.24997 8.84375L11.1691 7.08594L15.5488 11.0974L16.1393 10.4663ZM1.57593 0.25C0.76692 0.25 0.111084 0.948839 0.111084 1.80786V11.1921C0.111084 12.0525 0.7616 12.75 1.57593 12.75H16.924C17.733 12.75 18.3889 12.0512 18.3889 11.1921V1.80786C18.3889 0.947478 17.7383 0.25 16.924 0.25H1.57593Z"/>
</symbol><symbol id="icon-facebook" viewBox="0 0 11 21">
<path d="M7.48786 20.8125H2.12929V11.1375H0V6.3525H2.06643C1.90929 4.185 2.30214 2.6025 3.26071 1.5225C3.71777 1.04316 4.27461 0.66015 4.89562 0.397985C5.51662 0.13582 6.18812 0.000268301 6.86714 0L10.6229 0V4.6125H7.66857C7.49452 5.1766 7.42799 5.76595 7.47214 6.3525H10.615V11.1375H7.47214L7.48786 20.8125ZM3.31571 19.6875H6.28571V10.0125H9.42857V7.5H6.28571V6.93C6.28571 5.43 6.28571 4.0875 7.07143 3.585L7.22071 3.4875H9.42857V1.125H6.89857C6.38444 1.11866 5.87465 1.21553 5.40225 1.40933C4.92986 1.60314 4.50541 1.88955 4.15643 2.25C3.37071 3.1725 3.04857 4.7175 3.29214 6.855L3.37071 7.4775H1.17857V10.0125H3.31571V19.6875Z"/>
</symbol><symbol id="icon-instagram" viewBox="0 0 18 18">
  <path d="M12.9601 1.80061C13.8188 1.80251 14.6418 2.14448 15.249 2.75169C15.8562 3.35889 16.1982 4.18189 16.2001 5.04061V12.9606C16.1982 13.8193 15.8562 14.6423 15.249 15.2495C14.6418 15.8567 13.8188 16.1987 12.9601 16.2006H5.04009C4.18262 16.1968 3.36147 15.854 2.75581 15.247C2.15016 14.64 1.80919 13.8181 1.80729 12.9606V5.04061C1.80919 4.18314 2.15016 3.36122 2.75581 2.75422C3.36147 2.14722 4.18262 1.80441 5.04009 1.80061H12.9601ZM12.9601 0.720612H5.04009C3.89436 0.720612 2.79555 1.17575 1.98539 1.98591C1.17523 2.79607 0.720093 3.89488 0.720093 5.04061L0.720093 12.9606C0.720093 14.1063 1.17523 15.2052 1.98539 16.0153C2.79555 16.8255 3.89436 17.2806 5.04009 17.2806H12.9601C14.1058 17.2806 15.2046 16.8255 16.0148 16.0153C16.8249 15.2052 17.2801 14.1063 17.2801 12.9606V5.04061C17.2801 3.89488 16.8249 2.79607 16.0148 1.98591C15.2046 1.17575 14.1058 0.720612 12.9601 0.720612V0.720612Z"/>
  <path d="M9.00703 5.81737C9.63787 5.81737 10.2545 6.00444 10.7791 6.35492C11.3036 6.7054 11.7124 7.20354 11.9538 7.78637C12.1953 8.36919 12.2584 9.01051 12.1353 9.62923C12.0123 10.248 11.7085 10.8163 11.2624 11.2624C10.8163 11.7084 10.248 12.0122 9.62929 12.1353C9.01057 12.2584 8.36924 12.1952 7.78642 11.9538C7.2036 11.7124 6.70545 11.3035 6.35497 10.779C6.00449 10.2545 5.81743 9.63782 5.81743 9.00697C5.81648 8.58784 5.89833 8.17265 6.05829 7.78524C6.21824 7.39784 6.45315 7.04584 6.74952 6.74947C7.04589 6.4531 7.39789 6.21819 7.7853 6.05823C8.17271 5.89828 8.5879 5.81642 9.00703 5.81737ZM9.00703 4.73737C8.16228 4.73595 7.33609 4.98514 6.63301 5.45343C5.92993 5.92171 5.38156 6.58803 5.0573 7.36807C4.73304 8.14811 4.64746 9.00681 4.81139 9.83551C4.97532 10.6642 5.38139 11.4256 5.97822 12.0235C6.57504 12.6213 7.3358 13.0287 8.16422 13.194C8.99264 13.3593 9.85148 13.2752 10.6321 12.9523C11.4127 12.6293 12.0799 12.0821 12.5494 11.3798C13.0188 10.6775 13.2694 9.85173 13.2694 9.00697C13.2704 8.44662 13.1608 7.89158 12.947 7.37361C12.7333 6.85564 12.4194 6.38491 12.0236 5.98835C11.6277 5.59178 11.1575 5.27717 10.6398 5.06252C10.1222 4.84786 9.56738 4.73737 9.00703 4.73737Z"/>
  <path d="M13.4282 5.55936C13.961 5.55936 14.393 5.12741 14.393 4.59456C14.393 4.06172 13.961 3.62976 13.4282 3.62976C12.8953 3.62976 12.4634 4.06172 12.4634 4.59456C12.4634 5.12741 12.8953 5.55936 13.4282 5.55936Z"/>
</symbol><symbol id="icon-phone-1" viewBox="0 0 19 17">
<path fill-rule="evenodd" clip-rule="evenodd" d="M9.49995 1.08615C6.7035 1.08615 3.90033 1.55882 2.88322 2.50093C2.03934 3.28252 1.75804 4.66329 1.66321 5.53753C1.66321 5.53753 1.65015 5.62393 1.65015 5.66109C1.65015 6.00391 1.94445 6.27887 2.30427 6.27887C2.34678 6.27887 3.92002 6.15837 4.86851 6.08425C4.89134 6.08112 4.91434 6.07806 4.93716 6.07191C5.29043 6.0627 5.57505 5.7908 5.57505 5.45413L5.57822 4.237C5.57822 3.86014 5.90214 3.55737 6.3012 3.55737H12.6987C13.0978 3.55737 13.4218 3.86011 13.4218 4.237L13.425 5.45413C13.425 5.7908 13.7095 6.0627 14.0628 6.07191C14.0854 6.0781 14.1085 6.08112 14.1315 6.08425C15.0801 6.15834 16.6533 6.27887 16.6957 6.27887C17.0553 6.27887 17.3499 6.00391 17.3499 5.66109C17.3499 5.62393 17.3368 5.53753 17.3368 5.53753C17.2419 4.66329 16.9609 3.28255 16.117 2.50093C15.0996 1.55882 12.2964 1.08615 9.49995 1.08615ZM9.49995 9.11773C8.7771 9.11773 8.19164 9.67064 8.19164 10.3533C8.19164 11.036 8.7771 11.5889 9.49995 11.5889C10.2228 11.5889 10.8082 11.036 10.8082 10.3533C10.8082 9.67064 10.2228 9.11773 9.49995 9.11773ZM8.51873 6.33752V5.56528C8.51873 5.13902 8.15236 4.79304 7.70106 4.79304C7.24977 4.79304 6.8834 5.13905 6.8834 5.56528V6.33752L2.47095 10.7889C2.16689 11.07 1.97713 11.4622 1.97713 11.8948V13.1335C1.97713 13.8162 2.56264 14.3691 3.28545 14.3691H3.61254V15.1414C3.61254 15.5677 3.97895 15.9136 4.43025 15.9136C4.88154 15.9136 5.24792 15.5677 5.24792 15.1414V14.3691H13.752V15.1414C13.752 15.5677 14.1182 15.9136 14.5697 15.9136C15.021 15.9136 15.3873 15.5677 15.3873 15.1414V14.3691H15.7144C16.4373 14.3691 17.0227 13.8162 17.0227 13.1335V11.8948C17.0227 11.4622 16.833 11.07 16.5289 10.7889L12.1166 6.33752V5.56528C12.1166 5.13902 11.7502 4.79304 11.2989 4.79304C10.8476 4.79304 10.4812 5.13905 10.4812 5.56528V6.33752H8.51873ZM9.49995 7.8821C10.9456 7.8821 12.1166 8.98799 12.1166 10.3533C12.1166 11.7187 10.9457 12.8247 9.49995 12.8247C8.05426 12.8247 6.88336 11.7187 6.88336 10.3533C6.88336 8.98795 8.05426 7.8821 9.49995 7.8821Z"/>
</symbol><symbol id="icon-phone-2" viewBox="0 0 18 18">
<path d="M8.97412 7.42388C8.97412 7.61288 9.12775 7.76138 9.3155 7.76138C9.70468 7.76138 10.0187 8.07526 10.0187 8.45663C10.0187 8.64225 10.1724 8.79413 10.3601 8.79413C10.5479 8.79413 10.7015 8.64225 10.7015 8.45663C10.7015 7.70064 10.0802 7.08638 9.3155 7.08638C9.12775 7.08638 8.97412 7.23826 8.97412 7.42388ZM14.5318 8.79413C14.723 8.79413 14.8732 8.64225 14.8732 8.45663C14.8732 5.42589 12.3811 2.96214 9.3155 2.96214C9.12775 2.96214 8.97412 3.114 8.97412 3.29964C8.97412 3.48526 9.12775 3.63714 9.3155 3.63714C12.0056 3.63714 14.1904 5.80051 14.1904 8.45663C14.1904 8.64225 14.344 8.79413 14.5318 8.79413Z"/>
<path d="M12.1047 8.45663C12.1047 8.64225 12.2583 8.79413 12.446 8.79413C12.6338 8.79413 12.7874 8.64225 12.7874 8.45663C12.7874 6.56326 11.2307 5.02426 9.3156 5.02426C9.12785 5.02426 8.97422 5.17614 8.97422 5.36176C8.97422 5.55076 9.12785 5.69926 9.3156 5.69926C10.8552 5.69926 12.1047 6.93788 12.1047 8.45663ZM9.3156 0.900002C9.12785 0.900002 8.97422 1.05188 8.97422 1.2375C8.97422 1.42314 9.12785 1.575 9.3156 1.575C13.1561 1.575 16.2797 4.66314 16.2797 8.45663C16.2797 8.64225 16.43 8.79413 16.6211 8.79413C16.8089 8.79413 16.9625 8.64225 16.9625 8.45663C16.9625 4.28852 13.5316 0.900002 9.3156 0.900002ZM12.6509 12.0139L12.2037 12.2535C11.4492 12.6619 10.8621 13.7813 9.93111 12.9375L7.50006 10.5L5.39999 8.45663C4.3449 7.1235 5.5263 6.80625 5.93936 6.05701L6.18174 5.61827C6.45484 5.11875 6.55383 4.55851 6.47191 3.99825C6.3934 3.43801 6.13736 2.92838 5.7277 2.52338C5.2293 2.03064 4.56703 1.76064 3.86037 1.76064C3.15371 1.76064 2.48802 2.03064 1.9896 2.52338L1.81551 2.69888C0.893782 3.61014 0.787955 5.1795 1.51509 7.1235C2.20125 8.97975 3.58385 10.9913 5.39999 12.7868C8.16857 15.5239 11.2512 17.1 13.4634 17.1C14.3373 17.1 15.0781 16.8536 15.6038 16.3339L15.7813 16.1584C16.2763 15.669 16.5528 15.0143 16.5563 14.3089C16.5528 13.6204 16.2695 12.9454 15.7813 12.4628C14.9586 11.6494 13.6716 11.4671 12.6509 12.0139Z"/>
</symbol><symbol id="icon-phone" viewBox="0 0 17 15">
<path d="M8.49995 0.0861511C5.7035 0.0861511 2.90033 0.558819 1.88322 1.50093C1.03934 2.28252 0.758038 3.66329 0.663214 4.53753C0.663214 4.53753 0.650146 4.62393 0.650146 4.66109C0.650146 5.00391 0.944447 5.27887 1.30427 5.27887C1.34678 5.27887 2.92002 5.15837 3.86851 5.08425C3.89134 5.08112 3.91434 5.07806 3.93716 5.07191C4.29043 5.0627 4.57505 4.7908 4.57505 4.45413L4.57822 3.237C4.57822 2.86014 4.90214 2.55737 5.3012 2.55737H11.6987C12.0978 2.55737 12.4218 2.86011 12.4218 3.237L12.425 4.45413C12.425 4.7908 12.7095 5.0627 13.0628 5.07191C13.0854 5.0781 13.1085 5.08112 13.1315 5.08425C14.0801 5.15834 15.6533 5.27887 15.6957 5.27887C16.0553 5.27887 16.3499 5.00391 16.3499 4.66109C16.3499 4.62393 16.3368 4.53753 16.3368 4.53753C16.2419 3.66329 15.9609 2.28255 15.117 1.50093C14.0996 0.558819 11.2964 0.0861511 8.49995 0.0861511ZM8.49995 8.11773C7.7771 8.11773 7.19164 8.67064 7.19164 9.35333C7.19164 10.036 7.7771 10.5889 8.49995 10.5889C9.22279 10.5889 9.80823 10.036 9.80823 9.35333C9.80823 8.67064 9.22279 8.11773 8.49995 8.11773ZM7.51873 5.33752V4.56528C7.51873 4.13902 7.15236 3.79304 6.70106 3.79304C6.24977 3.79304 5.8834 4.13905 5.8834 4.56528V5.33752L1.47095 9.7889C1.16689 10.07 0.977135 10.4622 0.977135 10.8948V12.1335C0.977135 12.8162 1.56264 13.3691 2.28545 13.3691H2.61254V14.1414C2.61254 14.5677 2.97895 14.9136 3.43025 14.9136C3.88154 14.9136 4.24792 14.5677 4.24792 14.1414V13.3691H12.752V14.1414C12.752 14.5677 13.1182 14.9136 13.5697 14.9136C14.021 14.9136 14.3873 14.5677 14.3873 14.1414V13.3691H14.7144C15.4373 13.3691 16.0227 12.8162 16.0227 12.1335V10.8948C16.0227 10.4622 15.833 10.07 15.5289 9.7889L11.1166 5.33752V4.56528C11.1166 4.13902 10.7502 3.79304 10.2989 3.79304C9.84757 3.79304 9.48124 4.13905 9.48124 4.56528V5.33752H7.51873ZM8.49995 6.8821C9.94564 6.8821 11.1166 7.98799 11.1166 9.35333C11.1166 10.7187 9.94567 11.8247 8.49995 11.8247C7.05426 11.8247 5.88336 10.7187 5.88336 9.35333C5.88336 7.98795 7.05426 6.8821 8.49995 6.8821Z"/>
</symbol><symbol id="icon-plane" viewBox="0 0 21 23">
  <g clip-path="url(#clip0_58_80)">
    <path d="M16.7831 2.09314C16.0546 2.26635 15.3227 2.44038 15.0504 2.91723L12.9433 7.11585L1.62916 9.8059L1.17076 11.1474L9.82861 11.9662L8.35967 15.6009L5.07624 16.3816L4.25187 17.8101L6.62062 18.0673L6.89073 19.2357C7.01174 19.6498 7.43649 19.9263 7.79903 19.8401L8.89351 19.5799L10.1622 21.7433L10.9866 20.3148L10.1763 16.8098L12.5535 13.7795L17.0895 21.741L18.0042 20.7031L15.2128 8.62921L17.7762 4.73424C18.0519 4.25657 17.8721 3.47891 17.6914 2.69759C17.6019 2.31059 17.1457 2.00694 16.7831 2.09314Z"/>
  </g>
  
</symbol><symbol id="icon-run" viewBox="0 0 21 24">
<path d="M14.9758 5.75992C15.9264 5.75992 16.697 4.90031 16.697 3.83992C16.697 2.77954 15.9264 1.91992 14.9758 1.91992C14.0252 1.91992 13.2546 2.77954 13.2546 3.83992C13.2546 4.90031 14.0252 5.75992 14.9758 5.75992Z"/>
<path d="M13.9233 10.5302C14.1209 10.8586 14.4043 11.1113 14.735 11.2538C15.0657 11.3964 15.4277 11.4219 15.7719 11.327L18.6256 10.5312L18.21 8.66881L15.3562 9.46465L14.1695 7.48033C13.9159 7.05655 13.5224 6.76184 13.0748 6.66049L9.76493 5.92129C9.39465 5.83839 9.01021 5.89379 8.67097 6.07893C8.33173 6.26406 8.05657 6.56863 7.88797 6.94561L6.4611 10.129L8.00071 10.9882L9.42758 7.80385L11.1204 8.18209L6.74338 16.32H2.92749V18.24H6.74338C7.34407 18.24 7.90949 17.8829 8.2193 17.3078L9.86993 14.2397L14.3184 15.2323L15.8812 20.4634L17.5129 19.8557L15.9509 14.6256C15.8545 14.3045 15.684 14.0174 15.4564 13.7933C15.2289 13.5691 14.9524 13.4158 14.6548 13.3488L12.0395 12.7661L13.5645 9.93025L13.9233 10.5302V10.5302Z"/>
</symbol><symbol id="icon-user" viewBox="0 0 14 14">
<path d="M4.375 3.92991C4.375 5.45333 5.55275 6.69306 7 6.69306C8.44725 6.69306 9.625 5.45333 9.625 3.92991C9.625 2.40648 8.44725 1.16675 7 1.16675C5.55275 1.16675 4.375 2.40648 4.375 3.92991ZM11.6667 12.8334H12.25V12.2194C12.25 9.84982 10.4177 7.92113 8.16667 7.92113H5.83333C3.58167 7.92113 1.75 9.84982 1.75 12.2194V12.8334H11.6667Z"/>
</symbol><symbol id="icon-vk" viewBox="0 0 23 12">
<path d="M17.7664 11.8331C17.219 11.8207 16.6854 11.6573 16.2232 11.3606C15.7407 11.031 15.2975 10.6459 14.9026 10.2132C14.5761 9.88315 14.0345 9.32815 13.8268 9.32815C13.619 9.32815 13.4706 10.0181 13.478 10.5056C13.4812 10.8422 13.3564 11.167 13.1293 11.4131C12.8712 11.6263 12.5561 11.7569 12.2242 11.7881H10.7997C8.75222 11.7426 6.79178 10.9425 5.28708 9.53815C2.55676 7.01065 0.21224 2.18065 0.115789 1.97065C0.0237889 1.79521 -0.0147389 1.59616 0.00506792 1.3986C0.0248747 1.20105 0.102128 1.01386 0.227079 0.860649C0.509857 0.622256 0.867951 0.494496 1.23611 0.500649H4.26321H4.35224C4.6027 0.537588 4.84277 0.626997 5.05708 0.763149C5.25875 0.899848 5.42022 1.08899 5.5245 1.31065C5.8444 2.00295 6.2113 2.67204 6.62256 3.31315C7.5945 4.81315 8.02482 5.15815 8.18063 5.23315C8.35396 4.52985 8.40169 3.80091 8.3216 3.08065C8.3476 2.7526 8.29412 2.4231 8.16579 2.12065C8.00289 1.98893 7.80288 1.91278 7.5945 1.90315L7.05289 1.38565C6.94901 0.890649 7.49063 0.463149 7.86902 0.298149C8.62414 0.0589723 9.41638 -0.0376377 10.2061 0.013149H10.7329C11.2686 -0.000953053 11.8041 0.0494006 12.328 0.163149C13.5893 0.433149 13.5448 1.46065 13.4929 2.64565C13.4929 2.99065 13.4558 3.39565 13.4558 3.86065C13.4558 3.97315 13.4558 4.09315 13.4558 4.22065C13.4266 4.54717 13.4492 4.87631 13.5226 5.19565C14.1402 4.67331 14.6604 4.04337 15.0584 3.33565C15.4879 2.66645 15.865 1.96431 16.1861 1.23565C16.2839 1.00519 16.4516 0.812043 16.6649 0.684009C16.8782 0.555974 17.1262 0.499653 17.3732 0.523149H20.5487C20.6425 0.514104 20.7369 0.514104 20.8306 0.523149C21.5726 0.523149 22.0103 0.740649 22.1884 1.16065C22.3664 1.58065 22.3145 2.40565 20.4374 4.61815L19.6955 5.46565C19.336 5.81847 19.0264 6.21976 18.7755 6.65815C19.0565 6.98108 19.3754 7.2682 19.7251 7.51315C20.5778 8.16264 21.3283 8.93894 21.951 9.81565C22.097 9.98613 22.1925 10.1948 22.2266 10.4176C22.2608 10.6405 22.2321 10.8685 22.1439 11.0756C21.9884 11.3051 21.7803 11.4931 21.5375 11.6237C21.2946 11.7542 21.0241 11.8235 20.749 11.8256L17.9371 11.8631L17.7664 11.8331ZM13.8268 8.20315C14.4945 8.20315 15.0732 8.79565 15.689 9.41815C16.0217 9.78534 16.3951 10.1125 16.8019 10.3931C17.1096 10.6 17.4711 10.7096 17.8406 10.7081H17.9148L20.7342 10.6706C20.8732 10.6626 21.0094 10.6269 21.1348 10.5656L21.0606 10.4456C20.499 9.67196 19.8292 8.98479 19.0722 8.40565C18.1893 7.65565 17.7368 7.30315 17.6848 6.72565C17.6329 6.14815 18.0484 5.64565 18.8793 4.69315L19.6213 3.86065C20.2477 3.21479 20.7619 2.46681 21.1422 1.64815C20.9767 1.63823 20.8107 1.63823 20.6451 1.64815H17.4029C17.3443 1.6349 17.2835 1.6349 17.2248 1.64815C16.8814 2.44423 16.4719 3.20947 16.0006 3.93565C14.5984 6.05065 13.938 6.33565 13.4706 6.33565C13.3257 6.33565 13.183 6.29959 13.0551 6.23065C12.3132 5.80315 12.3132 4.85065 12.3577 4.16065C12.3577 4.04815 12.3577 3.93565 12.3577 3.83815C12.3577 3.35065 12.3577 2.93065 12.3948 2.57065C12.4542 1.31065 12.3948 1.30315 12.1129 1.23565C11.6586 1.14491 11.1958 1.10467 10.7329 1.11565H10.221C9.74988 1.10581 9.27872 1.13088 8.81127 1.19065C8.88206 1.24338 8.94459 1.30659 8.99676 1.37815C9.30278 1.8659 9.4554 2.43595 9.4345 3.01315C9.53095 4.25065 9.47902 5.86315 8.69256 6.25315C8.5533 6.31903 8.40115 6.35235 8.2474 6.35065C7.5574 6.35065 6.87482 5.69065 5.70998 3.90565C5.26298 3.22218 4.86383 2.50794 4.51547 1.76815L4.45611 1.69315C4.38118 1.65454 4.30126 1.62677 4.21869 1.61065H1.25095H1.19901C1.63676 2.52565 3.71418 6.57565 6.03643 8.69815C7.34044 9.90918 9.02993 10.6088 10.7997 10.6706H12.1722C12.2422 10.6555 12.3097 10.6303 12.3726 10.5956C12.3726 10.5956 12.3726 10.5956 12.3726 10.5281C12.3726 10.3256 12.3726 8.57815 13.5448 8.27815C13.6356 8.24202 13.7302 8.21685 13.8268 8.20315Z"/>
</symbol><symbol id="flag-australia"><g fill-rule="nonzero" fill="none"><path d="M64.31.33H6A6.64 6.64 0 0 0 .25 5.91v35.72a6.64 6.64 0 0 0 6.56 5.64H63.5a6.64 6.64 0 0 0 6.64-6.64V6.92A6.64 6.64 0 0 0 64.31.33z" fill="#4658A9"/><path d="M25.11.29H6.71A6.64 6.64 0 0 0 .14 6.93v17.32h25L25.11.29z" fill="#4658A9"/><path d="M10.68 17.69v6.56h3.9v-6.71l6.71 6.71h3.82v-3l-7-7h7v-4h-7l7-7v-3h-3.83l-6.7 6.7V.25h-3.9v6.56L4.52.65A6.66 6.66 0 0 0 .89 3.82l6.41 6.41H.14v4H7.3L.14 21.39v2.83h4l6.54-6.53z" fill="#FFF"/><path d="M11.68 14.95v9.31h1.9V14.8L23 24.25h2.08V23l-9.78-9.78h9.78v-1.93H15.3l9.78-9.78V.29H23l-9.45 9.45V.29h-1.9v9.3L3.32 1.25A6.67 6.67 0 0 0 1.56 2.8l8.49 8.49H.12v1.95h9.93L.12 23.17v1.09h2.23l9.33-9.31z" fill="#EC5463"/><path d="M41.83 13.17c-.32.23-.51.1-.41-.29l.35-1.43a1.3 1.3 0 0 0-.37-1.17l-1-.91c-.3-.26-.22-.48.17-.49h1.46a1.05 1.05 0 0 0 .91-.71l.46-1.57c.11-.38.31-.39.44 0l.55 1.54a1.1 1.1 0 0 0 1 .68h1.49c.39 0 .47.22.17.48l-1.13 1a1.24 1.24 0 0 0-.34 1.16l.36 1.26c.11.38-.07.52-.41.32l-1.21-.75a1.16 1.16 0 0 0-1.19 0l-1.3.88zM53.83 17.17c-.32.23-.51.1-.41-.29l.35-1.43a1.3 1.3 0 0 0-.37-1.17l-1-.91c-.3-.26-.22-.48.17-.49h1.46a1.05 1.05 0 0 0 .91-.71l.46-1.57c.11-.38.31-.39.44 0l.55 1.54a1.1 1.1 0 0 0 1 .68h1.49c.39 0 .47.22.17.48l-1.13 1a1.24 1.24 0 0 0-.34 1.16l.36 1.26c.11.38-.07.52-.41.32l-1.21-.75a1.16 1.16 0 0 0-1.19 0l-1.3.88zM35.83 24.17c-.32.23-.51.1-.41-.29l.35-1.43a1.3 1.3 0 0 0-.37-1.17l-1-.91c-.3-.26-.22-.48.17-.49h1.46a1.05 1.05 0 0 0 .91-.71l.46-1.57c.11-.38.31-.39.44 0l.55 1.54a1.1 1.1 0 0 0 1 .68h1.49c.39 0 .47.22.17.48l-1.13 1a1.24 1.24 0 0 0-.34 1.16l.36 1.26c.11.38-.07.52-.41.32l-1.21-.75a1.16 1.16 0 0 0-1.19 0l-1.3.88zM11.29 40.14c-.41.29-.65.13-.53-.37l.44-1.84a1.67 1.67 0 0 0-.48-1.5l-1.35-1.17c-.38-.33-.28-.61.22-.63l1.89-.05a1.35 1.35 0 0 0 1.18-.91l.59-2c.14-.49.4-.5.57 0l.71 2a1.42 1.42 0 0 0 1.23.88h1.92c.5 0 .61.28.23.62l-1.46 1.28a1.59 1.59 0 0 0-.44 1.5l.47 1.62c.14.49-.1.67-.53.4l-1.56-1a1.51 1.51 0 0 0-1.53 0l-1.57 1.17zM50.34 29.2c-.23.16-.36.07-.3-.2l.25-1a.93.93 0 0 0-.27-.83l-.75-.65c-.21-.18-.16-.34.12-.35h1a.75.75 0 0 0 .65-.51l.33-1.12c.08-.27.22-.28.32 0l.4 1.1a.79.79 0 0 0 .68.49h1.07c.28 0 .34.16.13.34l-.81.71A.88.88 0 0 0 53 28l.26.9c.08.27-.05.37-.29.23l-.87-.54a.84.84 0 0 0-.85 0l-.91.61z" fill="#FFF"/></g></symbol><symbol id="flag-belgium"><g fill-rule="nonzero" fill="none"><path d="M7.27.85A6.36 6.36 0 0 0 .91 7.21v34.27a6.36 6.36 0 0 0 6.36 6.36h17v-47l-17 .01z" fill="#434A54"/><path d="M24.25.85v47H47.6v-47H24.25z" fill="#FFCE54"/><path d="M64.54.85H47.59v47h16.95a6.36 6.36 0 0 0 6.36-6.36V7.21A6.36 6.36 0 0 0 64.54.85z" fill="#ED5565"/></g></symbol><symbol id="flag-bosnia"><g fill-rule="nonzero" fill="none"><rect fill="#4758A9" x=".9" y=".13" width="70" height="47" rx="6.36"/><path fill="#F6D660" d="M13.9.13h37v47z"/><path d="M8.19 4.88c-.27-.08-.28-.24 0-.36l1-.44a.93.93 0 0 0 .49-.73v-1c0-.28.17-.33.35-.12l.67.8c.203.22.517.3.8.2l1.08-.43c.26-.11.36 0 .2.24l-.62 1a.79.79 0 0 0 0 .84l.65.85c.17.22.08.36-.19.31l-1.06-.2a.88.88 0 0 0-.8.32l-.55.76c-.17.23-.33.19-.36-.09l-.11-1a.84.84 0 0 0-.55-.65l-1-.3zM12.51 10.38c-.27-.08-.28-.24 0-.36l1-.44a.92.92 0 0 0 .49-.73v-1c0-.28.17-.33.35-.12l.67.8c.203.22.517.3.8.2l1.08-.43c.26-.1.35 0 .2.24l-.62 1a.79.79 0 0 0 0 .84l.65.85c.17.22.08.36-.19.31l-1.06-.2a.88.88 0 0 0-.8.32l-.55.76c-.17.23-.33.19-.36-.09l-.12-1a.84.84 0 0 0-.55-.65l-.99-.3zM16.84 15.88c-.27-.08-.28-.24 0-.36l1-.44a.92.92 0 0 0 .49-.73v-1c0-.28.17-.33.35-.12l.67.81c.203.22.517.3.8.2l1.08-.43c.26-.11.35 0 .2.24l-.62 1a.79.79 0 0 0 0 .84l.65.85c.17.22.08.36-.19.31l-1.06-.2a.88.88 0 0 0-.8.32l-.55.76c-.16.23-.33.19-.36-.09l-.11-1a.84.84 0 0 0-.55-.65l-1-.31zM21.17 21.38c-.27-.08-.28-.24 0-.36l1-.44a.92.92 0 0 0 .49-.73v-1c0-.28.17-.33.35-.12l.67.81c.203.22.517.3.8.2l1.08-.43c.26-.1.35 0 .2.24l-.62 1a.79.79 0 0 0 0 .84l.65.85c.17.22.08.36-.19.31l-1.06-.2a.88.88 0 0 0-.8.32l-.55.76c-.17.23-.33.19-.36-.09l-.12-1a.83.83 0 0 0-.55-.65l-.99-.31zM25.5 26.88c-.27-.08-.28-.24 0-.36l1-.44a.93.93 0 0 0 .49-.73v-1c0-.28.17-.33.35-.12l.67.81c.203.22.517.3.8.2l1.08-.43c.26-.11.35 0 .2.24l-.62 1a.79.79 0 0 0 0 .84l.65.85c.17.22.08.36-.19.31l-1.06-.2a.88.88 0 0 0-.8.32l-.55.76c-.17.23-.33.19-.36-.09l-.12-1a.83.83 0 0 0-.55-.65l-.99-.31zM29.83 32.38c-.27-.08-.28-.24 0-.36l1-.44a.93.93 0 0 0 .49-.73v-1c0-.28.17-.33.35-.12l.67.81c.203.22.517.3.8.2l1.08-.43c.26-.11.35 0 .2.24l-.62 1a.79.79 0 0 0 0 .84l.65.85c.17.22.08.36-.19.31l-1.06-.2a.88.88 0 0 0-.8.32l-.55.76c-.17.23-.33.19-.36-.09l-.12-1a.84.84 0 0 0-.55-.65l-.99-.31zM34.16 37.89c-.27-.08-.28-.24 0-.36l1-.44a.93.93 0 0 0 .49-.73v-1c0-.28.17-.34.35-.12l.67.81c.203.22.517.3.8.2l1.08-.43c.26-.11.35 0 .2.24l-.62 1a.79.79 0 0 0 0 .84l.65.85c.17.22.08.36-.19.31l-1.06-.2a.88.88 0 0 0-.8.32l-.55.76c-.17.23-.33.19-.36-.09l-.12-1a.84.84 0 0 0-.55-.65l-.99-.31zM37.87 42.6c-.27-.08-.28-.24 0-.36l1-.44a.93.93 0 0 0 .49-.73v-1c0-.28.17-.33.35-.12l.67.81c.203.22.517.3.8.2l1.08-.43c.26-.11.35 0 .21.24l-.62 1a.79.79 0 0 0 0 .84l.65.85c.17.22.09.36-.19.31l-1.06-.2a.88.88 0 0 0-.8.32l-.55.76c-.16.23-.33.19-.36-.09l-.12-1a.84.84 0 0 0-.55-.65l-1-.31z" fill="#FFF"/></g></symbol><symbol id="flag-czech"><g fill-rule="nonzero" fill="none"><path d="M63.92.55H6.65A6.36 6.36 0 0 0 .29 6.91v17.64h70V6.91A6.36 6.36 0 0 0 63.92.55z" fill="#FFF"/><path d="M.28 41.18a6.36 6.36 0 0 0 6.36 6.36h57.28a6.36 6.36 0 0 0 6.36-6.36V24.55h-70v16.63z" fill="#ED5565"/><path d="M2.19 2.38a6.34 6.34 0 0 0-1.9 4.54v34.27a6.34 6.34 0 0 0 1.95 4.57l23.05-21.21L2.19 2.38z" fill="#4758A9"/></g></symbol><symbol id="flag-dominica"><g fill-rule="nonzero" fill="none"><rect fill="#039188" x=".08" y=".55" width="70" height="47" rx="6.36"/><path fill="#FFF" d="M.08 26.14h70.13v4.18H.08z"/><path fill="#434A54" d="M.08 21.96h70.13v4.18H.08z"/><path fill="#F6BB42" d="M.08 17.79h70.13v4.18H.08z"/><path fill="#FFF" d="M37.42.55h4.18v47h-4.18z"/><path fill="#434A54" d="M33.24.55h4.18v47h-4.18z"/><path fill="#F6BB42" d="M29.07.55h4.18v47h-4.18z"/><circle fill="#ED5565" cx="35.15" cy="24.05" r="12.92"/><path d="M44.8 20.51h.78a.13.13 0 0 1 .07.23l-.6.44a.13.13 0 0 0 0 .14l.23.76a.13.13 0 0 1-.2.14l-.65-.45a.13.13 0 0 0-.15 0l-.69.52a.13.13 0 0 1-.2-.14l.26-.8a.13.13 0 0 0 0-.14l-.67-.49a.13.13 0 0 1 .08-.23h.84a.13.13 0 0 0 .12-.09l.25-.72a.13.13 0 0 1 .24 0l.25.72a.13.13 0 0 0 .04.11zM25.49 27.59h-.78a.13.13 0 0 1-.07-.23l.6-.44a.13.13 0 0 0 0-.14l-.23-.76a.13.13 0 0 1 .2-.14l.65.45a.13.13 0 0 0 .15 0l.69-.52a.13.13 0 0 1 .2.14l-.26.8a.13.13 0 0 0 0 .14l.67.49a.13.13 0 0 1-.08.23h-.84a.13.13 0 0 0-.12.09l-.25.72a.13.13 0 0 1-.24 0l-.25-.72a.13.13 0 0 0-.04-.11zM45 26.86l.62.47a.13.13 0 0 1-.08.23h-.75a.13.13 0 0 0-.12.09l-.26.75a.13.13 0 0 1-.24 0l-.26-.74a.13.13 0 0 0-.12-.09h-.86a.13.13 0 0 1-.08-.23l.69-.49a.13.13 0 0 0 0-.14l-.25-.79a.13.13 0 0 1 .2-.14l.68.5a.13.13 0 0 0 .15 0l.63-.44a.13.13 0 0 1 .2.14l-.22.73a.13.13 0 0 0 .07.15zM25.25 21.24l-.62-.47a.13.13 0 0 1 .08-.23h.75a.13.13 0 0 0 .12-.09l.26-.75a.13.13 0 0 1 .24 0l.26.74a.13.13 0 0 0 .12.09h.86a.13.13 0 0 1 .08.23l-.69.49a.13.13 0 0 0 0 .14l.25.79a.13.13 0 0 1-.2.14l-.68-.5a.13.13 0 0 0-.15 0l-.63.44a.13.13 0 0 1-.2-.14l.22-.73a.13.13 0 0 0-.07-.15zM41.5 32.14l.22.75a.13.13 0 0 1-.2.14l-.6-.44a.13.13 0 0 0-.15 0l-.65.46a.13.13 0 0 1-.2-.14l.23-.76a.13.13 0 0 0-.05-.14l-.71-.49a.13.13 0 0 1 .07-.24h.84a.13.13 0 0 0 .12-.09l.26-.79a.13.13 0 0 1 .25 0l.26.8a.13.13 0 0 0 .12.09h.76a.13.13 0 0 1 .07.23l-.61.46a.13.13 0 0 0-.03.16zM28.79 16l-.22-.75a.13.13 0 0 1 .2-.14l.6.44a.13.13 0 0 0 .15 0l.65-.46a.13.13 0 0 1 .2.14l-.23.76a.13.13 0 0 0 .05.14l.71.49a.13.13 0 0 1-.07.24H30a.13.13 0 0 0-.12.09l-.26.79a.13.13 0 0 1-.25 0l-.26-.8a.13.13 0 0 0-.12-.09h-.76a.13.13 0 0 1-.07-.23l.61-.46a.13.13 0 0 0 .02-.16zM40.88 15.51l.64-.44a.13.13 0 0 1 .2.15l-.23.71a.13.13 0 0 0 0 .14l.64.48a.13.13 0 0 1-.07.23h-.79a.13.13 0 0 0-.12.09l-.25.83a.13.13 0 0 1-.25 0l-.26-.8a.13.13 0 0 0-.12-.09h-.83a.13.13 0 0 1-.07-.23l.68-.49a.13.13 0 0 0 0-.14l-.22-.73a.13.13 0 0 1 .2-.14l.62.44a.13.13 0 0 0 .23-.01zM29.41 32.59l-.64.44a.13.13 0 0 1-.2-.15l.23-.71a.13.13 0 0 0 0-.14l-.64-.48a.13.13 0 0 1 .07-.23h.79a.13.13 0 0 0 .12-.09l.25-.83a.13.13 0 0 1 .25 0l.26.8a.13.13 0 0 0 .12.09h.83a.13.13 0 0 1 .07.23l-.68.49a.13.13 0 0 0 0 .14l.22.73a.13.13 0 0 1-.2.14l-.62-.44a.13.13 0 0 0-.23.01zM34.76 13.77L35 13a.13.13 0 0 1 .24 0l.23.71a.13.13 0 0 0 .12.09h.8a.13.13 0 0 1 .08.23l-.63.48a.13.13 0 0 0 0 .15l.28.82a.13.13 0 0 1-.2.15l-.68-.5a.13.13 0 0 0-.15 0l-.68.48a.13.13 0 0 1-.2-.15l.26-.8a.13.13 0 0 0 0-.14l-.61-.46a.13.13 0 0 1 .08-.23h.76a.13.13 0 0 0 .06-.06zM35.53 34.33l-.26.73a.13.13 0 0 1-.24 0l-.23-.71a.13.13 0 0 0-.12-.09h-.8a.13.13 0 0 1-.08-.23l.63-.48a.13.13 0 0 0 0-.15l-.28-.82a.13.13 0 0 1 .2-.15l.68.5a.13.13 0 0 0 .15 0l.68-.48a.13.13 0 0 1 .2.15l-.26.8a.13.13 0 0 0 0 .14l.61.46a.13.13 0 0 1-.08.23h-.76a.13.13 0 0 0-.04.1zM38.93 29.33a2.86 2.86 0 0 0-.05-1.11 2.62 2.62 0 0 0-.09-1 6.11 6.11 0 0 0-.64-3.57 9.9 9.9 0 0 0-1.1-2 .07.07 0 0 1 .08-.1 1 1 0 0 0 1.14-.25.07.07 0 0 0 0-.11 1.47 1.47 0 0 1-.41-.18.07.07 0 0 1 0-.12 1.12 1.12 0 0 0 .29-.22.07.07 0 0 0 0-.11 1.46 1.46 0 0 1-.4-.18.07.07 0 0 1 0-.12 1.16 1.16 0 0 0 .24-.2.07.07 0 0 0 0-.11 1.94 1.94 0 0 1-.59-.3.07.07 0 0 1 0-.11c.073-.05.14-.106.2-.17a.07.07 0 0 0 0-.11 1.58 1.58 0 0 1-.45-.21.07.07 0 0 1 0-.13h.21a.07.07 0 0 0 0-.13c-.62-.35-1.37-1.22-1.84-1.45a1.9 1.9 0 0 0-1.87.1 1 1 0 0 0-.36.64.07.07 0 0 1-.05.05h-.16c-.42.09-.68.46-.36 1.3a.07.07 0 0 0 .13 0 1.53 1.53 0 0 1 .09-.19.07.07 0 0 1 .09 0 .6.6 0 0 0 .51 0 .81.81 0 0 0 .2-.1.07.07 0 0 1 .07 0 .07.07 0 0 1 0 .1.38.38 0 0 0-.05.18.4.4 0 0 0-.18.32.4.4 0 0 0-.14.3 6.32 6.32 0 0 0-.64 3.41 5.19 5.19 0 0 0 1.42 3.27c.022.09.052.176.09.26-.02.15-.02.3 0 .45 0 .45.25.78.45.77.018.209.083.41.19.59a.07.07 0 0 1 0 .09 1.21 1.21 0 0 0-.37.33.07.07 0 0 1-.05 0h-1.27c-.18 0-.07-.23-.21-.47a.77.77 0 0 0-.95-.17c-.32.18-.07.51-.62.56a.07.07 0 0 0-.06.09c.12.284.289.545.5.77.86.095 1.726.125 2.59.09a.07.07 0 0 1 .05 0 1 1 0 0 0 1 .43h.06a.48.48 0 0 0 .41 0 .07.07 0 0 1 .06 0 .53.53 0 0 0 .37 0h.05a.67.67 0 0 0 .3 0 .07.07 0 0 1 .07 0c.12.24.25.38.37.36.13.39.26.62.39.6.13-.02.22-.23.29-.61h.05c.2 0 .36-.37.46-.94a.07.07 0 0 1 .06-.06h.11a.56.56 0 0 0 0-.73v-.41a.07.07 0 0 1 .13 0l.14.32a.147.147 0 1 0 .05.29z" fill="#039188"/></g></symbol><symbol id="flag-france"><g fill-rule="nonzero" fill="none"><path d="M6.51.11A6.36 6.36 0 0 0 .15 6.47v34.27a6.36 6.36 0 0 0 6.36 6.36h17V.1l-17 .01z" fill="#4758A9"/><path d="M23.49.11v47h23.35v-47H23.49z" fill="#FFF"/><path d="M63.78.11H46.83v47h16.95a6.36 6.36 0 0 0 6.36-6.36V6.48A6.36 6.36 0 0 0 63.78.11z" fill="#ED5565"/></g></symbol><symbol id="flag-germany" viewBox="0 0 70 47"><g fill="#0c0e10"><path opacity=".2" d="M0 0h5.33A8.01 8.01 0 000 5.44V0zM64.54 0H70v5.32A7.99 7.99 0 0064.54 0z"/></g><path fill="#3e4954" d="M5.33 0h59.21A7.99 7.99 0 0170 5.32V16H0V5.44A8.01 8.01 0 015.33 0z"/><path fill="#ff5466" d="M0 16h70v16H0V16z"/><path fill="#ffbc32" d="M0 32h70v9.5a7.82 7.82 0 01-5.37 5.5H5.61A7.76 7.76 0 010 41.66V32z"/><g fill="#33250a"><path opacity=".2" d="M0 41.66A7.76 7.76 0 005.61 47H0v-5.34zM64.63 47A7.82 7.82 0 0070 41.5V47h-5.37z"/></g></symbol><symbol id="flag-seychelles"><g fill-rule="nonzero" fill="none"><path d="M3.88 47l.51-.12 66.47-30.61V7.33A6.36 6.36 0 0 0 64.5.97H46.6L2.28 45.59A6.39 6.39 0 0 0 3.88 47z" fill="#ED5565"/><path d="M7.24 1A6.36 6.36 0 0 0 .88 7.36v34.27c0 .915.197 1.819.58 2.65L24.15 1H7.24z" fill="#4758A9"/><path d="M25.1 1h-.95L1.45 44.28c.14.306.304.6.49.88.11.16.22.31.34.46L46.6 1H25.1z" fill="#FFCE54"/><path fill="#FFF" d="M70.87 30.89V16.26L4.4 46.87z"/><path d="M4.4 46.87l-.41.19a6.32 6.32 0 0 0 3.25.9h57.27a6.36 6.36 0 0 0 6.36-6.36V30.9L4.4 46.87z" fill="#57A863"/></g></symbol><symbol id="flag-sri-lanka"><g fill-rule="nonzero" fill="none"><rect fill="#FFCE54" x=".25" y=".52" width="70" height="47" rx="6.36"/><path fill="#57A863" d="M5.25 42.52v-37h8.11v37z"/><path fill="#FF8416" d="M13.36 42.52v-37h8.11v37z"/><path fill="#ED5565" d="M26.47 42.52v-37h38.79v37z"/><path d="M59.54 16.69a.72.72 0 0 0-.56-.39.7.7 0 0 0-.61.26.59.59 0 0 0-.15.55 4.29 4.29 0 0 1-1.29-.88 11.63 11.63 0 0 0-3.68-2.14 8.18 8.18 0 0 0-2.81-.15 4.6 4.6 0 0 0-2.13 1 2.06 2.06 0 0 0 0 3l.15.18-.09.14a1.22 1.22 0 0 0 .05 1.37c.26.35.33.35.39.35s.22-.28.23-.37a.46.46 0 0 1 .27-.45c.14-.05.25 0 1.15.33a8.4 8.4 0 0 0 4.39.08 4.71 4.71 0 0 1 2.17 0 1 1 0 0 1 .62.68 1 1 0 0 1-.28.92c-.22.24-.4.35-1.24.58a6 6 0 0 1-2.15.16 9.58 9.58 0 0 0-2.18.12 9.48 9.48 0 0 1-2.41.08h-1.71l-.34-.46a1.18 1.18 0 0 1-.18-.51V21l.2.12a.2.2 0 0 0 .23 0c.11-.1.09-.26-.12-.76a1.26 1.26 0 0 1-.07-.39v-.05a.16.16 0 0 0 .16 0c.06-.05.08-.07.12-1.33.04-1.26 0-1.6-.34-2l-.07-.09.15-.16a2 2 0 0 0 .57-1.08l.13-.8-.64.6a.54.54 0 0 1-.48.21.43.43 0 0 1-.41-.18 2.4 2.4 0 0 0-1-.59.33.33 0 0 0-.3 0 .24.24 0 0 0-.09.2 1.44 1.44 0 0 1-.14.34l-.06.1-.18-.18a1.79 1.79 0 0 0-.71-.45c-.27-.07-.45-.12-.58 0-.13.12-.12.25-.12.42 0 .17-.06.31-.06.31s-.08 0-.29-.17a1.42 1.42 0 0 0-1.28-.3l-.67.07.16.41c0 .1 0 .12-.07.27a1 1 0 0 1-.88.38 1.91 1.91 0 0 0-.68.12 2.31 2.31 0 0 1-.58.13l-.47.07a.74.74 0 0 0-.16-.6.83.83 0 0 0-.64-.27.79.79 0 0 0-.67.32 1.15 1.15 0 0 0-.08 1c0 .12.09.31.12.42a3 3 0 0 0 .62.82c.207.201.4.415.58.64.104.146.241.266.4.35l.54.3-.06-.47c.072.063.149.12.23.17.13.08.25.15.36.09a.23.23 0 0 0 .1-.21.65.65 0 0 1 0-.12c.17.27.36.528.57.77l.14.17a7.35 7.35 0 0 1-2.49-.7c-.67-.3-.88-.36-1-.22a.34.34 0 0 0-.1.31 1 1 0 0 0 .4.54.66.66 0 0 0-.23.38l-.2.63-.19.59.65-.06a4.77 4.77 0 0 0 .59-.09l-.32.59.6-.12a2.48 2.48 0 0 0 .49-.16h.07l.09.13c.05.09.22.35.44.3.22-.05.2-.13.23-.3l.05.11c.18.39.36.57.55.55.19-.02.19 0 .22-.26a.51.51 0 0 1 .17-.2.25.25 0 0 1 .17-.07s.07.06.1.14c.03.08 0 .31-.76.78a5 5 0 0 0-2.53 3.61 3.39 3.39 0 0 0 0 1.23c-.21-.23-.5-.52-.92-.93l-1.16-1.13a1 1 0 0 0 .52-.89.81.81 0 0 0-.61-.72.93.93 0 0 0-.38 0c0-.34.06-1 .09-2.55.08-4.13.38-7.27.78-8 .1-.18.17-.32.05-.43-.12-.11-.25 0-.58.19a4.26 4.26 0 0 0-1.38 1.6c-.7 1.32-1 3.12-1 6.86a23.17 23.17 0 0 0 .05 2.35.92.92 0 0 0-.41 0 .8.8 0 0 0-.64.69 1 1 0 0 0 .64 1c.147.068.301.118.46.15a.32.32 0 0 0-.08.29.31.31 0 0 0 0 .11.34.34 0 0 0-.17.1c-.07.08-.13.23 0 .49a.5.5 0 0 0 .22.22.36.36 0 0 0-.1.36c.032.1.1.186.19.24a.4.4 0 0 0 0 .24.43.43 0 0 0 .27.42.5.5 0 0 0 0 .23l-.13-.06a.45.45 0 0 0-.46 0 .42.42 0 0 0-.07.65.81.81 0 0 0 .62.15.7.7 0 0 1-.14.21l-.28.31.23.32a.82.82 0 0 1 0 .91l-.05.06a.49.49 0 0 0-.47-.22.4.4 0 0 0-.3.31c-.07.25 0 .39.25.58a1 1 0 0 0 .55.25.61.61 0 0 1-.12.12l-.52.4.72.11h.21c.06.22.25.65.45.65s.29-.18.33-.23a.81.81 0 0 0 .15-.42h.21l.73-.1-.54-.43-.11-.1a1.13 1.13 0 0 0 .82-.55.46.46 0 0 0-.07-.43.47.47 0 0 0-.45-.15.36.36 0 0 0-.27.24l-.06-.06a.75.75 0 0 1 0-1c.21-.24.17-.35-.05-.56a.8.8 0 0 1-.19-.31h.11a.53.53 0 0 0 .54 0 .36.36 0 0 0 .14-.43.51.51 0 0 0-.38-.27.48.48 0 0 0 .27-.14.85.85 0 0 0 .16.15c.16.12.16.12.16.78s0 .84.19 1c.19.16.18.17.3.12a.22.22 0 0 0 .12-.23.33.33 0 0 1 .2-.12c.23.175.447.365.65.57.265.28.572.516.91.7h.25a1.36 1.36 0 0 0 .41-.12 2.79 2.79 0 0 0 1-.87 7.7 7.7 0 0 0 .85.52c.202.14.436.226.68.25.07.24.16.51.26.81.53 1.57.35 2-.21 2.35-.19.11-.29.13-.91.13-.62 0-.81 0-1.07.21a1.91 1.91 0 0 0-.54 1.1.25.25 0 0 0 .12.22c.13.07.3 0 .59-.13l.13-.08a.57.57 0 0 0 .38.21 1 1 0 0 0 .69-.18l.1-.07.07.07a.85.85 0 0 0 .56.2 1 1 0 0 0 .58-.19l.1-.07c.175.111.374.18.58.2.42.05.48 0 .73-.34a.85.85 0 0 0 .18-.74c0-.16-.06-.42-.06-.58a.94.94 0 0 1 0-.16c.096-.05.196-.09.3-.12a5.89 5.89 0 0 0 .63-.25c.16-.09.73-.68.73-.9 0-.22-.14-.22-.56-.26-.42-.04-.56-.13-.63-.28-.07-.15 0-.5.29-.93.17-.26.32-.51.46-.76l.28-.06c.15 0 .95-.38 1.61-.68a8 8 0 0 1 3.57-1v.28a3.21 3.21 0 0 0 .93 1.94 2.63 2.63 0 0 1 .79 2.23v1l-.16.15c-.15.14-.17.16-.81.2-.64.04-.78.06-1 .26a1.14 1.14 0 0 0-.43.69.35.35 0 0 0 0 .32.28.28 0 0 0 .23.09 1.28 1.28 0 0 0 .52-.21l.17-.11.1.09a.68.68 0 0 0 1 0 .63.63 0 0 0 .54.25c.29 0 .44 0 .59-.23l.14.09c.179.127.39.2.61.21a.56.56 0 0 0 .34-.11l.05.05c.15.11.36 0 .63-.16l.14-.09a.57.57 0 0 0 .4.24.85.85 0 0 0 .64-.21l.11-.09.12.09a.87.87 0 0 0 .76.18.64.64 0 0 0 .37-.27c.288.21.647.3 1 .25a.3.3 0 0 0 .23-.17.66.66 0 0 0-.13-.52 2 2 0 0 1-.47-1c0-.34.07-.5.53-.84.46-.34.71-.74.62-1a.37.37 0 0 0-.4-.25c-.2 0-.43-.21-.58-.54-.34-.77-.27-1.63.26-3.1a6.62 6.62 0 0 0 .62-2.89 3 3 0 0 0-.22-1.49 5.3 5.3 0 0 0-.54-1l-.21-.29.28-.23a2.1 2.1 0 0 0 .82-1.92 2.15 2.15 0 0 0-1.35-1.65 2.61 2.61 0 0 0-1.41-.22 11.61 11.61 0 0 0-1.62.14 10.87 10.87 0 0 1-1.57.13c-.76 0-.86 0-1.11-.15-.25-.15-.28-.17-.33-.5a.39.39 0 0 0-.24-.31c-.21-.07-.61.3-.78.54a1.55 1.55 0 0 1-.15-.31c-.07-.2-.07-.43.37-.65l.61-.29-.46-.28a1.13 1.13 0 0 0-.86-.11 1.16 1.16 0 0 0-.73.5l-.05.08-.16-.15a.74.74 0 0 1-.24-.7.76.76 0 0 1 .53-.53.63.63 0 0 1 .47 0 .18.18 0 0 1 .09.11c.08.29.28.26.32.25.27-.05.43-.53.38-.89v-.12c.392.08.745.292 1 .6a1.13 1.13 0 0 1 0 1.12l-.39.64.62-.12a1.64 1.64 0 0 0 1-.65 1.53 1.53 0 0 0 .07-1.3c.253.108.459.303.58.55.117.16.14.37.06.55a1.79 1.79 0 0 1-.22.49c-.1.13-.18.24-.12.36a.23.23 0 0 0 .22.11 1.6 1.6 0 0 0 .88-.4c.11-.132.197-.28.26-.44.234.335.56.596.94.75.45.19.62.21.7.07.08-.14-.08-.28-.14-.33a2.09 2.09 0 0 1-.26-.61c.22.16.58.45 1 .84a2.4 2.4 0 0 0 1.75.81 1.14 1.14 0 0 0 1-.52 1 1 0 0 0 .31-1.09zM34.4 28a.66.66 0 0 0 .26-.07.2.2 0 0 0 .08.06 1 1 0 0 0-.26 0l-.08.01zm20.85 6a2.2 2.2 0 0 0-1.2.62 2.55 2.55 0 0 0-.12-.53c-.14-.43-.1-.66.45-1.31.08-.09.47-.56.47-.77a.3.3 0 0 0-.08-.23c-.09-.09-.23-.09-.45-.09s-.3 0-.42-.14-.25-.37.05-.75l.2-.25.19.12c1.55 1 1.55 1 1.62 2.08.07 1.08.04 1.11-.71 1.25z" fill="#FFCE54"/></g></symbol><symbol id="flag-thailand"><g fill-rule="nonzero" fill="none"><rect fill="#ED5565" x=".25" y=".07" width="70" height="47" rx="6.36"/><path fill="#FFF" d="M.25 9.57h70v28h-70z"/><path fill="#4758A9" d="M.25 13.57h70v20h-70z"/></g></symbol><symbol id="flag-united-kingdom"><g fill-rule="nonzero" fill="none"><path d="M30.57.68h-3.13V15l-25-12.5a6.62 6.62 0 0 0-2 4.24l19.2 9.6h-7L.41 10.23V12l8.73 4.36H.41v3.13H30.6L30.57.68zM68.23 45.89a6.62 6.62 0 0 0 2.12-4.19L50.93 32h7l12.46 6.23v-1.75l-9-4.48h9v-3.13H40v18.79h3.13V33.34l25.1 12.55zM43.1.68H40v18.79h30.42v-3.13h-9l9-4.48V7.29v-.67l-19.43 9.71h-7L69.36 3.64a6.68 6.68 0 0 0-1-1.23L43.1 15V.68zM.39 28.86V32h8.73L.39 36.36V41.59l19.2-9.6h7L1.41 44.58a6.66 6.66 0 0 0 1 1.24l25-12.49v14.32h3.13V28.86H.39z" fill="#FFF"/><path fill="#EC5565" d="M70.39 28.86v-9.39H39.97V.68h-9.4v18.79H.39v9.39h30.18v18.79h9.4V28.86z"/><path d="M19.61 16.34L.41 6.74V10.22l12.23 6.11 6.97.01zM50.93 16.34l19.43-9.71a6.6 6.6 0 0 0-1.06-3L43.93 16.32l7 .02zM50.93 32l19.42 9.71a6.72 6.72 0 0 0 0-.7v-2.78L57.93 32h-7zM19.61 32L.41 41.6a6.6 6.6 0 0 0 1 3L26.62 32h-7.01z" fill="#EC5565"/><path d="M43.1 15L68.26 2.42A6.61 6.61 0 0 0 64.42.68H43.1V15zM70.39 36.47v-4.48h-8.96zM70.39 16.34v-4.48l-8.96 4.48zM2.46 45.82a6.61 6.61 0 0 0 4.57 1.83h20.41V33.33L2.46 45.82zM43.1 33.33v14.32h20.65a6.61 6.61 0 0 0 4.48-1.75L43.1 33.33zM27.44.68H6.36A6.61 6.61 0 0 0 2.44 2.5l25 12.5V.68zM.39 31.99v4.36l8.72-4.36zM.39 11.97v4.37h8.72z" fill="#4658A9"/></g></symbol><symbol id="flag-usa"><g fill-rule="nonzero" fill="none"><path d="M7 47.61h57.77A6.64 6.64 0 0 0 70.16 44H1.6A6.64 6.64 0 0 0 7 47.61z" fill="#ED5565"/><path d="M.91 40.38v1.34a6.59 6.59 0 0 0 .68 2.27h68.55a6.59 6.59 0 0 0 .68-2.27v-1.34H.91z" fill="#FFF"/><path fill="#ED5565" d="M.91 36.77h69.92v3.61H.91z"/><path fill="#FFF" d="M.91 33.16h69.92v3.61H.91z"/><path fill="#ED5565" d="M.91 29.55h69.92v3.61H.91z"/><path fill="#FFF" d="M.91 25.94h69.92v3.61H.91z"/><path fill="#ED5565" d="M.91 22.33h69.92v3.61H.91z"/><path fill="#FFF" d="M.91 18.72h69.92v3.61H.91z"/><path fill="#ED5565" d="M.91 15.11h69.92v3.61H.91z"/><path fill="#FFF" d="M.91 11.49h69.92v3.61H.91z"/><path fill="#ED5565" d="M.91 7.88h69.92v3.61H.91z"/><path d="M70.83 7.88V6.54a6.59 6.59 0 0 0-.68-2.28H1.6a6.59 6.59 0 0 0-.68 2.28v1.34h69.91z" fill="#FFF"/><path d="M64.76.66H7a6.64 6.64 0 0 0-5.39 3.61h68.55a6.64 6.64 0 0 0-5.4-3.61z" fill="#ED5565"/><path d="M34.09 25.94V.66H7A6.64 6.64 0 0 0 .93 6.55v19.39h33.16z" fill="#4A89DC"/><path fill="#FFF" d="M5.02 3.72l-.27.84h-.88l.71.51-.27.84.71-.52.71.52-.27-.84.71-.51h-.88zM5.02 7.96l-.27.84h-.88l.71.52-.27.83.71-.51.71.51-.27-.83.71-.52h-.88zM5.02 12.2l-.27.84h-.88l.71.52-.27.84.71-.52.71.52-.27-.84.71-.52h-.88zM5.02 16.45l-.27.83h-.88l.71.52-.27.84.71-.52.71.52-.27-.84.71-.52h-.88zM5.29 21.52l-.27-.83-.27.83h-.88l.71.52-.27.84.71-.52.71.52-.27-.84.71-.52zM7.51 5.84l-.27.84h-.88l.71.52-.27.83.71-.52.72.52-.27-.83.71-.52h-.88zM7.51 10.08l-.27.84h-.88l.71.52-.27.83.71-.51.72.51-.27-.83.71-.52h-.88zM7.51 14.33l-.27.83h-.88l.71.52-.27.84.71-.52.72.52-.27-.84.71-.52h-.88zM7.79 19.4l-.28-.83-.27.83h-.88l.71.52-.27.84.71-.52.72.52-.27-.84.71-.52zM10.01 3.72l-.27.84h-.88l.71.51-.27.84.71-.52.71.52-.27-.84.71-.51h-.88zM10.01 7.96l-.27.84h-.88l.71.52-.27.83.71-.51.71.51-.27-.83.71-.52h-.88zM10.01 12.2l-.27.84h-.88l.71.52-.27.84.71-.52.71.52-.27-.84.71-.52h-.88zM10.01 16.45l-.27.83h-.88l.71.52-.27.84.71-.52.71.52-.27-.84.71-.52h-.88zM10.28 21.52l-.27-.83-.27.83h-.88l.71.52-.27.84.71-.52.71.52-.27-.84.71-.52zM12.5 5.84l-.27.84h-.88l.71.52-.27.83.71-.52.72.52-.27-.83.71-.52h-.88zM12.5 10.08l-.27.84h-.88l.71.52-.27.83.71-.51.72.51-.27-.83.71-.52h-.88zM12.5 14.33l-.27.83h-.88l.71.52-.27.84.71-.52.72.52-.27-.84.71-.52h-.88zM12.78 19.4l-.28-.83-.27.83h-.88l.71.52-.27.84.71-.52.72.52-.27-.84.71-.52zM15 3.72l-.27.84h-.88l.71.51-.27.84.71-.52.71.52-.27-.84.71-.51h-.88zM15 7.96l-.27.84h-.88l.71.52-.27.83.71-.51.71.51-.27-.83.71-.52h-.88zM15 12.2l-.27.84h-.88l.71.52-.27.84.71-.52.71.52-.27-.84.71-.52h-.88zM15 16.45l-.27.83h-.88l.71.52-.27.84.71-.52.71.52-.27-.84.71-.52h-.88zM15.27 21.52l-.27-.83-.27.83h-.88l.71.52-.27.84.71-.52.71.52-.27-.84.71-.52zM17.49 5.84l-.27.84h-.88l.71.52-.27.83.71-.52.72.52-.28-.83.72-.52h-.88zM17.49 10.08l-.27.84h-.88l.71.52-.27.83.71-.51.72.51-.28-.83.72-.52h-.88zM17.49 14.33l-.27.83h-.88l.71.52-.27.84.71-.52.72.52-.28-.84.72-.52h-.88zM17.77 19.4l-.28-.83-.27.83h-.88l.71.52-.27.84.71-.52.72.52-.28-.84.72-.52zM19.99 3.72l-.27.84h-.88l.71.51-.27.84.71-.52.71.52-.27-.84.71-.51h-.88zM19.99 7.96l-.27.84h-.88l.71.52-.27.83.71-.51.71.51-.27-.83.71-.52h-.88zM19.99 12.2l-.27.84h-.88l.71.52-.27.84.71-.52.71.52-.27-.84.71-.52h-.88zM19.99 16.45l-.27.83h-.88l.71.52-.27.84.71-.52.71.52-.27-.84.71-.52h-.88zM20.26 21.52l-.27-.83-.27.83h-.88l.71.52-.27.84.71-.52.71.52-.27-.84.71-.52zM22.48 5.84l-.27.84h-.88l.71.52-.27.83.71-.52.72.52-.28-.83.72-.52h-.88zM22.48 10.08l-.27.84h-.88l.71.52-.27.83.71-.51.72.51-.28-.83.72-.52h-.88zM22.48 14.33l-.27.83h-.88l.71.52-.27.84.71-.52.72.52-.28-.84.72-.52h-.88zM22.76 19.4l-.28-.83-.27.83h-.88l.71.52-.27.84.71-.52.72.52-.28-.84.72-.52zM24.98 3.72l-.27.84h-.88l.71.51-.27.84.71-.52.71.52-.27-.84.71-.51h-.88zM24.98 7.96l-.27.84h-.88l.71.52-.27.83.71-.51.71.51-.27-.83.71-.52h-.88zM24.98 12.2l-.27.84h-.88l.71.52-.27.84.71-.52.71.52-.27-.84.71-.52h-.88zM24.98 16.45l-.27.83h-.88l.71.52-.27.84.71-.52.71.52-.27-.84.71-.52h-.88zM25.25 21.52l-.27-.83-.27.83h-.88l.71.52-.27.84.71-.52.71.52-.27-.84.71-.52zM27.47 5.84l-.27.84h-.88l.71.52-.27.83.71-.52.72.52-.28-.83.72-.52h-.88zM27.47 10.08l-.27.84h-.88l.71.52-.27.83.71-.51.72.51-.28-.83.72-.52h-.88zM27.47 14.33l-.27.83h-.88l.71.52-.27.84.71-.52.72.52-.28-.84.72-.52h-.88zM27.75 19.4l-.28-.83-.27.83h-.88l.71.52-.27.84.71-.52.72.52-.28-.84.72-.52zM29.53 5.07l-.27.84.71-.52.71.52-.27-.84.71-.51h-.88l-.27-.84-.27.84h-.88zM29.97 7.96l-.27.84h-.88l.71.52-.27.83.71-.51.71.51-.27-.83.71-.52h-.88zM29.97 12.2l-.27.84h-.88l.71.52-.27.84.71-.52.71.52-.27-.84.71-.52h-.88zM29.97 16.45l-.27.83h-.88l.71.52-.27.84.71-.52.71.52-.27-.84.71-.52h-.88zM30.24 21.52l-.27-.83-.27.83h-.88l.71.52-.27.84.71-.52.71.52-.27-.84.71-.52z"/></g></symbol></svg>